# xmcd
#
# Track frame offsets:
#	150
#	7305
#	35809
#	92227
#	109693
#	138297
#	177465
#	212320
#	246691
#	284859
#
# Disc length: 4340 seconds
#
# Revision: 0
# Processed by: cddbd v1.4PL0 Copyright (c) Steve Scherf et al.
# Submitted via: EasyCDDAExtractor 4.6.0.1
#
DISCID=9e10f20a
DTITLE=Jill Scott - Experience: Jill Scott 826+ CD#1 
DYEAR=2001
DGENRE=Blues
TTITLE0=Show Intro (Alright Man. It's Time For You To Move)
TTITLE1=A Long Walk (Groove)
TTITLE2=Love Rain (Suite)
TTITLE3=Slowly Surely
TTITLE4=One Is The Magic # (Redux)
TTITLE5=Do You Remember
TTITLE6=Gettin' In The Way
TTITLE7=It's Love
TTITLE8=The Way
TTITLE9=Fatback Taffy, He Loves
EXTD=
EXTT0=
EXTT1=
EXTT2=
EXTT3=
EXTT4=
EXTT5=
EXTT6=
EXTT7=
EXTT8=
EXTT9=
PLAYORDER=
